<mxfile host="app.diagrams.net" modified="2023-02-14T13:58:23.500Z" agent="5.0 (Macintosh; Intel Mac OS X 10_15_7) AppleWebKit/537.36 (KHTML, like Gecko) Chrome/109.0.0.0 Safari/537.36" etag="7A7_LF8bAvydMFHhcO-J" version="20.8.20" type="github">
  <diagram name="페이지-1" id="NwyLLNj22H9BFyRGfaQE">
    <mxGraphModel dx="1535" dy="1965" grid="1" gridSize="10" guides="1" tooltips="1" connect="1" arrows="1" fold="1" page="1" pageScale="1" pageWidth="827" pageHeight="1169" math="0" shadow="0">
      <root>
        <mxCell id="0" />
        <mxCell id="1" parent="0" />
        <mxCell id="5m6K9fvriKK6YViNjtVW-7" value="사용자의&lt;br&gt;이메일 입력&lt;br&gt;비밀번호 입력" style="shape=parallelogram;perimeter=parallelogramPerimeter;whiteSpace=wrap;html=1;fixedSize=1;" parent="1" vertex="1">
          <mxGeometry x="-220" y="-100" width="200" height="80" as="geometry" />
        </mxCell>
        <mxCell id="5m6K9fvriKK6YViNjtVW-8" value="사용자의 이메일 값이 공백이 &lt;br&gt;아니면서 @를 포함시키는가?" style="rhombus;whiteSpace=wrap;html=1;" parent="1" vertex="1">
          <mxGeometry x="-230" width="220" height="130" as="geometry" />
        </mxCell>
        <mxCell id="5m6K9fvriKK6YViNjtVW-11" value="" style="curved=1;endArrow=classic;html=1;rounded=0;exitX=1;exitY=0.5;exitDx=0;exitDy=0;" parent="1" target="5m6K9fvriKK6YViNjtVW-7" edge="1">
          <mxGeometry width="50" height="50" relative="1" as="geometry">
            <mxPoint x="-10.95" y="56.97999999999999" as="sourcePoint" />
            <mxPoint x="-29.999999999999954" y="-80.00000000000003" as="targetPoint" />
            <Array as="points">
              <mxPoint x="49.05" y="41.97999999999999" />
              <mxPoint x="108.05" y="5.97999999999999" />
              <mxPoint x="99.05" y="-58.02000000000001" />
            </Array>
          </mxGeometry>
        </mxCell>
        <mxCell id="5m6K9fvriKK6YViNjtVW-16" value="아니오" style="text;html=1;align=center;verticalAlign=middle;resizable=0;points=[];autosize=1;strokeColor=none;fillColor=none;" parent="1" vertex="1">
          <mxGeometry x="50" y="170" width="50" height="30" as="geometry" />
        </mxCell>
        <mxCell id="5m6K9fvriKK6YViNjtVW-26" value="" style="edgeStyle=orthogonalEdgeStyle;rounded=0;orthogonalLoop=1;jettySize=auto;html=1;" parent="1" source="5m6K9fvriKK6YViNjtVW-8" target="5m6K9fvriKK6YViNjtVW-25" edge="1">
          <mxGeometry relative="1" as="geometry" />
        </mxCell>
        <mxCell id="5m6K9fvriKK6YViNjtVW-17" value="예" style="text;html=1;align=center;verticalAlign=middle;resizable=0;points=[];autosize=1;strokeColor=none;fillColor=none;" parent="1" vertex="1">
          <mxGeometry x="-90" y="130" width="30" height="30" as="geometry" />
        </mxCell>
        <mxCell id="5m6K9fvriKK6YViNjtVW-19" value="" style="endArrow=classic;html=1;rounded=0;exitX=0.465;exitY=1.025;exitDx=0;exitDy=0;exitPerimeter=0;" parent="1" source="5m6K9fvriKK6YViNjtVW-7" target="5m6K9fvriKK6YViNjtVW-8" edge="1">
          <mxGeometry width="50" height="50" relative="1" as="geometry">
            <mxPoint x="-100" y="-10" as="sourcePoint" />
            <mxPoint x="-75" y="-60" as="targetPoint" />
          </mxGeometry>
        </mxCell>
        <mxCell id="5m6K9fvriKK6YViNjtVW-25" value="로그인 버튼을 활성화시킨다." style="whiteSpace=wrap;html=1;" parent="1" vertex="1">
          <mxGeometry x="-207.5" y="310" width="175" height="60" as="geometry" />
        </mxCell>
        <mxCell id="5m6K9fvriKK6YViNjtVW-28" value="사용자의 비밀번호가 공백이&lt;br&gt;&amp;nbsp;아니면서 8자리 이상인가?" style="rhombus;whiteSpace=wrap;html=1;" parent="1" vertex="1">
          <mxGeometry x="-230" y="150" width="220" height="130" as="geometry" />
        </mxCell>
        <mxCell id="5m6K9fvriKK6YViNjtVW-30" value="" style="curved=1;endArrow=classic;html=1;rounded=0;exitX=1;exitY=0.5;exitDx=0;exitDy=0;" parent="1" edge="1">
          <mxGeometry width="50" height="50" relative="1" as="geometry">
            <mxPoint x="-14" y="208.98999999999998" as="sourcePoint" />
            <mxPoint x="-30" y="-80" as="targetPoint" />
            <Array as="points">
              <mxPoint x="46" y="193.98999999999998" />
              <mxPoint x="105" y="157.98999999999998" />
              <mxPoint x="96" y="93.99" />
            </Array>
          </mxGeometry>
        </mxCell>
        <mxCell id="5m6K9fvriKK6YViNjtVW-31" value="아니오" style="text;html=1;align=center;verticalAlign=middle;resizable=0;points=[];autosize=1;strokeColor=none;fillColor=none;" parent="1" vertex="1">
          <mxGeometry y="20" width="50" height="30" as="geometry" />
        </mxCell>
        <mxCell id="5m6K9fvriKK6YViNjtVW-41" style="edgeStyle=orthogonalEdgeStyle;rounded=0;orthogonalLoop=1;jettySize=auto;html=1;" parent="1" source="5m6K9fvriKK6YViNjtVW-32" target="5m6K9fvriKK6YViNjtVW-5" edge="1">
          <mxGeometry relative="1" as="geometry" />
        </mxCell>
        <mxCell id="5m6K9fvriKK6YViNjtVW-32" value="로그인 버튼&lt;br&gt;default 상태" style="shape=hexagon;perimeter=hexagonPerimeter2;whiteSpace=wrap;html=1;fixedSize=1;" parent="1" vertex="1">
          <mxGeometry x="-270" y="-220" width="120" height="80" as="geometry" />
        </mxCell>
        <mxCell id="5m6K9fvriKK6YViNjtVW-34" value="예" style="text;html=1;align=center;verticalAlign=middle;resizable=0;points=[];autosize=1;strokeColor=none;fillColor=none;" parent="1" vertex="1">
          <mxGeometry x="-100" y="-10" width="30" height="30" as="geometry" />
        </mxCell>
        <mxCell id="5m6K9fvriKK6YViNjtVW-35" value="예" style="text;html=1;align=center;verticalAlign=middle;resizable=0;points=[];autosize=1;strokeColor=none;fillColor=none;" parent="1" vertex="1">
          <mxGeometry x="-110" y="270" width="30" height="30" as="geometry" />
        </mxCell>
        <mxCell id="5m6K9fvriKK6YViNjtVW-40" value="" style="edgeStyle=orthogonalEdgeStyle;rounded=0;orthogonalLoop=1;jettySize=auto;html=1;exitX=0.75;exitY=0;exitDx=0;exitDy=0;endArrow=none;" parent="1" source="5m6K9fvriKK6YViNjtVW-7" target="5m6K9fvriKK6YViNjtVW-5" edge="1">
          <mxGeometry relative="1" as="geometry">
            <mxPoint x="-70" y="-100" as="sourcePoint" />
            <mxPoint x="-190" y="-220" as="targetPoint" />
            <Array as="points" />
          </mxGeometry>
        </mxCell>
        <mxCell id="5m6K9fvriKK6YViNjtVW-5" value="시작" style="ellipse;whiteSpace=wrap;html=1;aspect=fixed;" parent="1" vertex="1">
          <mxGeometry x="-135" y="-220" width="80" height="80" as="geometry" />
        </mxCell>
      </root>
    </mxGraphModel>
  </diagram>
</mxfile>
